<svg id="visual2" viewBox="0 0 900 200" xmlns="http://www.w3.org/2000/svg"
    xmlns:xlink="http://www.w3.org/1999/xlink" version="1.1">
    <rect x="0" y="0" width="1000" height="200" fill="#001220"></rect>
    <path
        d="M0 94L10 96.2C20 98.3 40 102.7 60 105.8C80 109 100 111 120 107.5C140 104 160 95 180 88.5C200 82 220 78 240 82.3C260 86.7 280 99.3 300 107C320 114.7 340 117.3 360 113.5C380 109.7 400 99.3 420 95.8C440 92.3 460 95.7 480 92.8C500 90 520 81 540 78C560 75 580 78 600 80.3C620 82.7 640 84.3 660 91C680 97.7 700 109.3 720 114.2C740 119 760 117 780 112.5C800 108 820 101 840 98.2C860 95.3 880 96.7 890 97.3L900 98L900 0L890 0C880 0 860 0 840 0C820 0 800 0 780 0C760 0 740 0 720 0C700 0 680 0 660 0C640 0 620 0 600 0C580 0 560 0 540 0C520 0 500 0 480 0C460 0 440 0 420 0C400 0 380 0 360 0C340 0 320 0 300 0C280 0 260 0 240 0C220 0 200 0 180 0C160 0 140 0 120 0C100 0 80 0 60 0C40 0 20 0 10 0L0 0Z"
        fill="#000000"></path>
    <path
        d="M0 82L10 82.3C20 82.7 40 83.3 60 80C80 76.7 100 69.3 120 72.5C140 75.7 160 89.3 180 92.2C200 95 220 87 240 85.7C260 84.3 280 89.7 300 93.7C320 97.7 340 100.3 360 96C380 91.7 400 80.3 420 73.2C440 66 460 63 480 66C500 69 520 78 540 83.2C560 88.3 580 89.7 600 88.3C620 87 640 83 660 78.7C680 74.3 700 69.7 720 70.2C740 70.7 760 76.3 780 77.3C800 78.3 820 74.7 840 73.7C860 72.7 880 74.3 890 75.2L900 76L900 0L890 0C880 0 860 0 840 0C820 0 800 0 780 0C760 0 740 0 720 0C700 0 680 0 660 0C640 0 620 0 600 0C580 0 560 0 540 0C520 0 500 0 480 0C460 0 440 0 420 0C400 0 380 0 360 0C340 0 320 0 300 0C280 0 260 0 240 0C220 0 200 0 180 0C160 0 140 0 120 0C100 0 80 0 60 0C40 0 20 0 10 0L0 0Z"
        fill="#001874"></path>
    <path
        d="M0 80L10 79.3C20 78.7 40 77.3 60 74.3C80 71.3 100 66.7 120 66.8C140 67 160 72 180 70C200 68 220 59 240 58C260 57 280 64 300 67.8C320 71.7 340 72.3 360 69.3C380 66.3 400 59.7 420 59.2C440 58.7 460 64.3 480 65.8C500 67.3 520 64.7 540 67.2C560 69.7 580 77.3 600 76.5C620 75.7 640 66.3 660 60.5C680 54.7 700 52.3 720 52.2C740 52 760 54 780 58.2C800 62.3 820 68.7 840 71.8C860 75 880 75 890 75L900 75L900 0L890 0C880 0 860 0 840 0C820 0 800 0 780 0C760 0 740 0 720 0C700 0 680 0 660 0C640 0 620 0 600 0C580 0 560 0 540 0C520 0 500 0 480 0C460 0 440 0 420 0C400 0 380 0 360 0C340 0 320 0 300 0C280 0 260 0 240 0C220 0 200 0 180 0C160 0 140 0 120 0C100 0 80 0 60 0C40 0 20 0 10 0L0 0Z"
        fill="#002e92"></path>
    <path
        d="M0 48L10 47.2C20 46.3 40 44.7 60 47.2C80 49.7 100 56.3 120 59C140 61.7 160 60.3 180 58.5C200 56.7 220 54.3 240 54.7C260 55 280 58 300 59.7C320 61.3 340 61.7 360 60.3C380 59 400 56 420 54.8C440 53.7 460 54.3 480 53C500 51.7 520 48.3 540 46.8C560 45.3 580 45.7 600 48C620 50.3 640 54.7 660 58.2C680 61.7 700 64.3 720 65C740 65.7 760 64.3 780 63.7C800 63 820 63 840 61.3C860 59.7 880 56.3 890 54.7L900 53L900 0L890 0C880 0 860 0 840 0C820 0 800 0 780 0C760 0 740 0 720 0C700 0 680 0 660 0C640 0 620 0 600 0C580 0 560 0 540 0C520 0 500 0 480 0C460 0 440 0 420 0C400 0 380 0 360 0C340 0 320 0 300 0C280 0 260 0 240 0C220 0 200 0 180 0C160 0 140 0 120 0C100 0 80 0 60 0C40 0 20 0 10 0L0 0Z"
        fill="#0245af"></path>
    <path
        d="M0 38L10 39.7C20 41.3 40 44.7 60 45.8C80 47 100 46 120 44.8C140 43.7 160 42.3 180 41.5C200 40.7 220 40.3 240 41.2C260 42 280 44 300 43.7C320 43.3 340 40.7 360 38.7C380 36.7 400 35.3 420 33.2C440 31 460 28 480 29C500 30 520 35 540 35.2C560 35.3 580 30.7 600 31.7C620 32.7 640 39.3 660 42.5C680 45.7 700 45.3 720 43C740 40.7 760 36.3 780 35C800 33.7 820 35.3 840 38C860 40.7 880 44.3 890 46.2L900 48L900 0L890 0C880 0 860 0 840 0C820 0 800 0 780 0C760 0 740 0 720 0C700 0 680 0 660 0C640 0 620 0 600 0C580 0 560 0 540 0C520 0 500 0 480 0C460 0 440 0 420 0C400 0 380 0 360 0C340 0 320 0 300 0C280 0 260 0 240 0C220 0 200 0 180 0C160 0 140 0 120 0C100 0 80 0 60 0C40 0 20 0 10 0L0 0Z"
        fill="#035cca"></path>
    <path
        d="M0 25L10 24.2C20 23.3 40 21.7 60 21.8C80 22 100 24 120 23.2C140 22.3 160 18.7 180 17.2C200 15.7 220 16.3 240 17.2C260 18 280 19 300 19.3C320 19.7 340 19.3 360 20.3C380 21.3 400 23.7 420 24.2C440 24.7 460 23.3 480 21.3C500 19.3 520 16.7 540 17.8C560 19 580 24 600 26.7C620 29.3 640 29.7 660 28.5C680 27.3 700 24.7 720 23.8C740 23 760 24 780 25.2C800 26.3 820 27.7 840 27C860 26.3 880 23.7 890 22.3L900 21L900 0L890 0C880 0 860 0 840 0C820 0 800 0 780 0C760 0 740 0 720 0C700 0 680 0 660 0C640 0 620 0 600 0C580 0 560 0 540 0C520 0 500 0 480 0C460 0 440 0 420 0C400 0 380 0 360 0C340 0 320 0 300 0C280 0 260 0 240 0C220 0 200 0 180 0C160 0 140 0 120 0C100 0 80 0 60 0C40 0 20 0 10 0L0 0Z"
        fill="#0073e6"></path>
</svg>