<svg id="visual" viewBox="0 0 900 200" xmlns="http://www.w3.org/2000/svg"
    xmlns:xlink="http://www.w3.org/1999/xlink" version="1.1">
    <path
        d="M0 135L9.3 133.5C18.7 132 37.3 129 56.2 118.3C75 107.7 94 89.3 112.8 88.8C131.7 88.3 150.3 105.7 169 115.3C187.7 125 206.3 127 225 124.2C243.7 121.3 262.3 113.7 281.2 119C300 124.3 319 142.7 337.8 140.5C356.7 138.3 375.3 115.7 394 116.3C412.7 117 431.3 141 450 137.5C468.7 134 487.3 103 506.2 96.8C525 90.7 544 109.3 562.8 114.5C581.7 119.7 600.3 111.3 619 109C637.7 106.7 656.3 110.3 675 120.7C693.7 131 712.3 148 731.2 141.3C750 134.7 769 104.3 787.8 94C806.7 83.7 825.3 93.3 844 103.8C862.7 114.3 881.3 125.7 890.7 131.3L900 137L900 201L890.7 201C881.3 201 862.7 201 844 201C825.3 201 806.7 201 787.8 201C769 201 750 201 731.2 201C712.3 201 693.7 201 675 201C656.3 201 637.7 201 619 201C600.3 201 581.7 201 562.8 201C544 201 525 201 506.2 201C487.3 201 468.7 201 450 201C431.3 201 412.7 201 394 201C375.3 201 356.7 201 337.8 201C319 201 300 201 281.2 201C262.3 201 243.7 201 225 201C206.3 201 187.7 201 169 201C150.3 201 131.7 201 112.8 201C94 201 75 201 56.2 201C37.3 201 18.7 201 9.3 201L0 201Z" stroke-linecap="round" stroke-linejoin="miter"></path>
</svg>