<svg id="visual" viewBox="0 0 1000 200" preserveAspectRatio="xMaxYMax meet" width="100%" xmlns="http://www.w3.org/2000/svg"
    xmlns:xlink="http://www.w3.org/1999/xlink" version="1.1">
    <path
        d="M0 110L10.5 103C21 96 42 82 62.8 88.7C83.7 95.3 104.3 122.7 125.2 137.5C146 152.3 167 154.7 187.8 142.8C208.7 131 229.3 105 250.2 105.3C271 105.7 292 132.3 312.8 134C333.7 135.7 354.3 112.3 375.2 101.2C396 90 417 91 437.8 102.3C458.7 113.7 479.3 135.3 500.2 132C521 128.7 542 100.3 562.8 95.2C583.7 90 604.3 108 625.2 119.5C646 131 667 136 687.8 136.3C708.7 136.7 729.3 132.3 750.2 118.3C771 104.3 792 80.7 812.8 85.8C833.7 91 854.3 125 875.2 132.5C896 140 917 121 937.8 113.2C958.7 105.3 979.3 108.7 989.7 110.3L1000 112L1000 201L989.7 201C979.3 201 958.7 201 937.8 201C917 201 896 201 875.2 201C854.3 201 833.7 201 812.8 201C792 201 771 201 750.2 201C729.3 201 708.7 201 687.8 201C667 201 646 201 625.2 201C604.3 201 583.7 201 562.8 201C542 201 521 201 500.2 201C479.3 201 458.7 201 437.8 201C417 201 396 201 375.2 201C354.3 201 333.7 201 312.8 201C292 201 271 201 250.2 201C229.3 201 208.7 201 187.8 201C167 201 146 201 125.2 201C104.3 201 83.7 201 62.8 201C42 201 21 201 10.5 201L0 201Z" stroke-linecap="round" stroke-linejoin="miter"></path>
</svg>